
<svg xmlns="http://www.w3.org/2000/svg" version="1.1" xmlns:xlink="http://www.w3.org/1999/xlink" preserveAspectRatio="none" x="0px" y="0px" width="550px" height="594px" viewBox="0 0 550 594">
<defs>
<g id="Layer0_0_FILL">
<path fill="#FFFFFF" stroke="none" d="
M 42.55 456.8
L 42.55 460.8 502.55 460.8 502.55 456.8 42.55 456.8
M 310.75 343.6
Q 310.75 337.2 305.6 337.2
L 266.8 337.2 263.55 337.85
Q 261.5 338.9 261.5 344.2
L 261.5 349.65
Q 261.5 353.9 262.75 355.1 263.75 356 266.35 356
L 274.6 356
Q 276.7 356 276.7 359.2
L 276.7 436.85 277 440.3
Q 277.7 443.4 282.05 443.4
L 290.35 443.4
Q 293.55 443.4 294.5 441.9 295.4 440.45 295.4 436.4
L 295.4 359.2
Q 295.4 356 297.5 356
L 305.75 356 307.85 355.8
Q 310.75 355 310.75 349.5
L 310.75 343.6
M 211.7 343.4
Q 211.7 339.2 210.3 338.05 209.25 337.2 206.55 337.2
L 175.05 337.2
Q 169.6 337.2 169.6 344.2
L 169.6 436.4
Q 169.6 439.8 170.3 441.3 171.35 443.4 175.05 443.4
L 207.55 443.4
Q 212.9 443.4 212.9 436.55
L 212.9 431.45
Q 212.9 424.6 207.25 424.6
L 191.45 424.6
Q 188.1 424.6 188.1 421.1
L 188.1 398.85 188.65 397 191 396.45 198.95 396.45
Q 203.5 396.45 203.5 391.15
L 203.5 383.05
Q 203.5 377.65 198.95 377.65
L 191 377.65 188.6 377.15 188.1 374.3 188.1 359.5 188.35 357.1
Q 188.8 356 191 356
L 206.55 356 209.35 355.55
Q 211.7 354.6 211.7 349.35
L 211.7 343.4
M 222.85 337.2
Q 217.4 337.2 217.4 344.2
L 217.4 436.4
Q 217.4 439.8 218.1 441.3 219.15 443.4 222.85 443.4
L 255.35 443.4
Q 260.7 443.4 260.7 436.55
L 260.7 431.45
Q 260.7 424.6 255.05 424.6
L 239.25 424.6
Q 235.9 424.6 235.9 421.1
L 235.9 398.85 236.45 397 238.8 396.45 246.75 396.45
Q 251.3 396.45 251.3 391.15
L 251.3 383.05
Q 251.3 377.65 246.75 377.65
L 238.8 377.65 236.4 377.15 235.9 374.3 235.9 359.5 236.15 357.1
Q 236.6 356 238.8 356
L 254.35 356 257.15 355.55
Q 259.5 354.6 259.5 349.35
L 259.5 343.4
Q 259.5 339.2 258.1 338.05 257.05 337.2 254.35 337.2
L 222.85 337.2
M 247.5 206.05
Q 247.5 201.4 245.95 200.1 244.85 199.15 241.8 199.15
L 206.8 199.15
Q 200.8 199.15 200.8 206.95
L 200.8 309.4
Q 200.8 313.2 201.55 314.8 202.7 317.15 206.8 317.15
L 242.95 317.15
Q 248.9 317.15 248.9 309.55
L 248.9 303.85
Q 248.9 296.25 242.6 296.25
L 225.05 296.25
Q 221.35 296.25 221.35 292.35
L 221.35 267.65 221.95 265.6 224.55 265 233.35 265
Q 238.45 265 238.45 259.1
L 238.45 250.1
Q 238.45 244.05 233.35 244.05
L 224.55 244.05 221.85 243.55 221.35 240.35 221.35 223.95 221.6 221.25
Q 222.1 220.05 224.55 220.05
L 241.8 220.05 244.9 219.55
Q 247.5 218.5 247.5 212.65
L 247.5 206.05
M 307.75 212.45
Q 303.65 199.15 289.75 199.15
L 259.55 199.15
Q 253.85 199.15 253.85 207.1
L 253.85 309.55 254.5 314.9
Q 255.55 317.15 260.05 317.15
L 288.75 317.15
Q 298.5 317.15 302.7 313.25 307.55 308.75 309.35 296.15 311 284.5 311 258.05 311 223.1 307.75 212.45
M 286.9 221.6
Q 289 223.75 289.5 232.05
L 289.95 259.8 289.4 285.1
Q 288.8 292.6 286.85 294.7 285.35 296.25 280.5 296.25 276.05 296.25 275.1 295.55 274.05 294.8 274.05 291.5
L 274.05 225.35
Q 274.05 221.8 275.15 220.9 276.3 220.05 280 220.05 285.45 220.05 286.9 221.6
M 119.35 337.2
Q 113.9 337.2 113.9 344.35
L 113.9 436.55 114.45 441.05
Q 115.3 443.4 119.05 443.4
L 127.6 443.4
Q 132.9 443.4 132.9 436.7
L 132.9 400.55
Q 132.9 399.15 134.6 399.15
L 136.85 399.15
Q 138.55 399.15 138.8 400.55
L 145.35 438.8
Q 146.1 443.4 149.6 443.4
L 162.05 443.4
Q 164.9 443.4 164.9 441.15 164.85 440.15 164.6 439.1
L 155.35 393.9
Q 163.9 386.55 163.9 370 163.9 337.2 142.15 337.2
L 119.35 337.2
M 139.75 380.35
L 134.45 380.35
Q 132.9 380.35 132.9 377.45
L 132.9 358.2
Q 132.9 356 135 356
L 140.05 356
Q 145.5 356 145.5 367.6 145.5 380.35 139.75 380.35
M 58.35 350.8
Q 56.1 359.75 55.9 390.7 55.75 421.85 59.2 430.75 60.45 434 62.6 436.4 68.95 443.65 83 443.65 97.3 443.65 102.75 436.4 103.1 435.95 103.4 435.45 107.55 429 107.55 412.25
L 107.55 384.65
Q 107.55 377.65 102.55 377.65
L 87.5 377.65
Q 83.7 377.65 82.5 379.25 81.6 380.5 81.6 384.15
L 81.6 391.45
Q 81.6 396.45 84.45 396.45
L 89.05 396.45
Q 91 396.45 91 400.55
L 91 416.2
Q 91 424.6 83.3 424.6 74.9 424.6 74.9 414.4
L 75.3 366.6
Q 75.9 359.3 77.9 357.35 79.5 356 84.75 356
L 96.2 356
Q 101.15 356 101.15 349
L 101.15 343.9
Q 101.15 340.1 100.15 338.7 99.15 337.2 95.75 337.2
L 74.1 337.2
Q 61.75 337.2 58.35 350.8
M 96.1 205.55
Q 96.1 199.15 91.15 199.15
L 70.95 199.15
Q 59.55 199.15 54.45 203.8 49 208.85 49 220.6 49 234.55 57.15 249.95
L 77.15 287.6 78.2 291.6
Q 78.2 296.25 73.45 296.25
L 55.25 296.25
Q 52.55 296.25 51.45 297 49.55 298.15 49.55 303.65
L 49.55 309.9
Q 49.55 314.05 50.65 315.6 51.8 317.15 55.4 317.15
L 81.75 317.15
Q 100.65 317.15 100.65 298.25 100.65 285.2 89.85 265.3
L 70.95 230.4
Q 69.4 227.65 69.4 225.05 69.4 220.05 74.85 220.05
L 90.65 220.05
Q 96.1 220.05 96.1 213.3
L 96.1 205.55
M 136.85 205.55
L 139.3 227.85 131.35 261.8
Q 130.8 264.1 129.95 264.1 128.65 264.1 128.4 261.8
L 120 204.25
Q 119.35 199.15 115.8 199.15
L 103.8 199.15
Q 99.1 199.15 99.1 203.2
L 115.95 312.75
Q 116.65 317.15 120.35 317.15
L 131.85 317.15
Q 135.85 317.15 136.7 313.6
L 146.35 272.25
Q 146.9 270.25 147.65 270.25 148.25 270.25 148.55 272.4
L 153.45 311.9 154.65 315.95
Q 155.6 317.15 158.45 317.15
L 172.2 317.15
Q 176.35 317.15 177.2 312.05
L 195.6 205.55 195.85 202.8
Q 195.85 199.15 191.9 199.15
L 178.95 199.15
Q 175.5 199.15 174.85 203.75
L 167.8 261.6
Q 167.55 264.1 166.4 264.1 165.3 264.1 164.95 261.6
L 158.1 204.25
Q 157.45 199.15 153.6 199.15
L 141.25 199.15
Q 136.2 199.15 136.85 205.55
M 448.15 343.9
Q 448.15 340.1 447.15 338.7 446.15 337.2 442.75 337.2
L 421.1 337.2
Q 408.75 337.2 405.35 350.8 403.1 359.75 402.9 390.7 402.75 421.85 406.2 430.75 407.45 434 409.6 436.4 415.95 443.65 430 443.65 444.3 443.65 449.75 436.4 450.1 435.95 450.4 435.45 454.55 429 454.55 412.25
L 454.55 384.65
Q 454.55 377.65 449.55 377.65
L 434.5 377.65
Q 430.7 377.65 429.5 379.25 428.6 380.5 428.6 384.15
L 428.6 391.45
Q 428.6 396.45 431.45 396.45
L 436.05 396.45
Q 438 396.45 438 400.55
L 438 416.2
Q 438 424.6 430.3 424.6 421.9 424.6 421.9 414.4
L 422.3 366.6
Q 422.9 359.3 424.9 357.35 426.5 356 431.75 356
L 443.2 356
Q 448.15 356 448.15 349
L 448.15 343.9
M 477.35 337.2
Q 467.1 337.2 462.55 341.4 457.65 345.9 457.65 356.5 457.65 369.1 464.95 382.9
L 482.95 416.8 483.9 420.4
Q 483.9 424.6 479.65 424.6
L 463.2 424.6
Q 460.8 424.6 459.8 425.3 458.1 426.3 458.1 431.25
L 458.1 436.85
Q 458.1 440.6 459.1 442 460.1 443.4 463.4 443.4
L 487.1 443.4
Q 498 443.4 501.9 436.4 504.1 432.5 504.1 426.35 504.1 414.65 494.4 396.75
L 477.35 365.35
Q 475.95 362.85 475.95 360.55 475.95 356 480.85 356
L 495.1 356
Q 500 356 500 349.95
L 500 342.95
Q 500 337.2 495.55 337.2
L 477.35 337.2
M 334.15 344.35
Q 334.15 337.2 329.15 337.2
L 320.6 337.2
Q 315.3 337.2 315.3 344.35
L 315.3 436.4
Q 315.3 441.05 316.7 442.3 317.9 443.4 320.9 443.4
L 328.85 443.4
Q 332.25 443.4 333.3 441.85 334.15 440.5 334.15 436.7
L 334.15 344.35
M 382.1 337.2
Q 377.2 337.2 377.2 344.2
L 377.2 380.8
Q 377.2 383.85 376.4 383.85 375.4 383.85 374.6 381.6
L 361.25 342.1
Q 360.15 338.85 359.05 338.05 358 337.2 355.05 337.2
L 347.7 337.2
Q 344.75 337.2 343.6 338.2 342.1 339.55 342.1 344.2
L 342.1 436.25
Q 342.1 436.35 342.1 436.4 342.15 443.4 347.85 443.4
L 356.1 443.4
Q 361.1 443.4 361.1 436.4
L 361.1 399.65
Q 361.1 396.6 361.85 396.6 362.9 396.6 363.65 398.85
L 377.05 438.5
Q 378.1 441.75 379.2 442.6 380.3 443.4 383.25 443.4
L 390.55 443.4
Q 393.5 443.4 394.65 442.3 396.15 440.9 396.15 436.4 396.15 436.35 396.15 436.25
L 396.15 344.35
Q 396.15 337.2 390.4 337.2
L 382.1 337.2
M 365.15 212.65
L 365.15 206.05
Q 365.15 201.4 363.6 200.1 362.5 199.15 359.45 199.15
L 324.45 199.15
Q 318.45 199.15 318.45 206.95
L 318.45 309.4
Q 318.45 313.2 319.2 314.8 320.35 317.15 324.45 317.15
L 360.6 317.15
Q 366.55 317.15 366.55 309.55
L 366.55 303.85
Q 366.55 296.25 360.25 296.25
L 342.7 296.25
Q 339 296.25 339 292.35
L 339 267.65 339.6 265.6 342.2 265 351 265
Q 356.1 265 356.1 259.1
L 356.1 250.1
Q 356.1 244.05 351 244.05
L 342.2 244.05 339.5 243.55 339 240.35 339 223.95 339.25 221.25
Q 339.75 220.05 342.2 220.05
L 359.45 220.05 362.55 219.55
Q 365.15 218.5 365.15 212.65
M 425.1 199.15
L 415.9 199.15
Q 410.45 199.15 410.45 206.95
L 410.45 247.6
Q 410.45 251 409.55 251 408.45 251 407.6 248.5
L 392.75 204.6
Q 391.5 200.95 390.3 200.1 389.1 199.15 385.8 199.15
L 377.7 199.15
Q 374.4 199.15 373.1 200.3 371.5 201.75 371.5 206.95
L 371.5 309.2
Q 371.5 317.15 377.85 317.15
L 387.05 317.15
Q 392.55 317.15 392.55 309.4
L 392.55 268.5
Q 392.55 265.15 393.4 265.15 394.55 265.15 395.4 267.65
L 410.25 311.7
Q 411.45 315.35 412.7 316.3 413.9 317.15 417.15 317.15
L 425.3 317.15
Q 428.6 317.15 429.85 315.95 431.5 314.4 431.5 309.2
L 431.5 207.1
Q 431.5 199.15 425.1 199.15
M 479.05 230.4
Q 477.5 227.65 477.5 225.05 477.5 220.05 482.95 220.05
L 498.75 220.05
Q 504.2 220.05 504.2 213.3
L 504.2 205.55
Q 504.2 199.15 499.25 199.15
L 479.05 199.15
Q 467.65 199.15 462.55 203.8 457.1 208.85 457.1 220.6 457.1 234.55 465.25 249.95
L 485.25 287.6 486.3 291.6
Q 486.3 296.25 481.55 296.25
L 463.35 296.25
Q 460.65 296.25 459.55 297 457.65 298.15 457.65 303.65
L 457.65 309.9
Q 457.65 314.05 458.75 315.6 459.9 317.15 463.5 317.15
L 489.85 317.15
Q 508.75 317.15 508.75 298.25 508.75 285.2 497.95 265.3
L 479.05 230.4
M 451.6 227.85
L 455.15 204.1
Q 455.95 199.15 451.6 199.15
L 440.5 199.15
Q 436.5 199.15 437.1 204.1
L 440.3 227.85
Q 440.8 231.55 444.2 231.55
L 447.75 231.55
Q 451.1 231.55 451.6 227.85
M 502.55 179.4
L 502.55 175.4 346.55 175.4 346.55 137.55 365.15 156.15 368 153.3 346.55 131.85 346.55 116.55 365.15 135.15 368 132.3 346.55 110.85 346.55 95.55 365.15 114.15 368 111.3 346.55 89.85 346.55 74.55 365.15 93.15 368 90.3 346.55 68.85 346.55 53.55 365.15 72.15 368 69.3 346 47.3
Q 345.4 46.7 344.55 46.7 343.7 46.7 343.15 47.3
L 321.15 69.3 324 72.15 342.55 53.55 342.55 68.85 321.15 90.3 324 93.15 342.55 74.55 342.55 89.85 321.15 111.3 324 114.15 342.55 95.55 342.55 110.85 321.15 132.3 324 135.15 342.55 116.55 342.55 131.85 321.15 153.3 324 156.15 342.55 137.55 342.55 175.4 274.55 175.4 274.55 127.15 293.15 145.75 296 142.9 274.55 121.45 274.55 106.35 293.15 124.95 296 122.1 274.55 100.65 274.55 85.35 293.15 103.95 296 101.1 274.55 79.65 274.55 64.35 293.15 82.95 296 80.1 274.55 58.65 274.55 43.35 293.15 61.95 296 59.1 274.55 37.65 274.55 22.35 293.15 40.95 296 38.1 274 16.1
Q 273.4 15.5 272.55 15.5 271.7 15.5 271.15 16.1
L 249.15 38.1 252 40.95 270.55 22.35 270.55 37.65 249.15 59.1 252 61.95 270.55 43.35 270.55 58.65 249.15 80.1 252 82.95 270.55 64.35 270.55 79.65 249.15 101.1 252 103.95 270.55 85.35 270.55 100.65 249.15 122.1 252 124.95 270.55 106.35 270.55 121.45 249.15 142.9 252 145.75 270.55 127.15 270.55 175.4 202.55 175.4 202.55 137.55 221.15 156.15 224 153.3 202.55 131.85 202.55 116.55 221.15 135.15 224 132.3 202.55 110.85 202.55 95.55 221.15 114.15 224 111.3 202.55 89.85 202.55 74.55 221.15 93.15 224 90.3 202.55 68.85 202.55 53.55 221.15 72.15 224 69.3 202 47.3
Q 201.4 46.7 200.55 46.7 199.7 46.7 199.15 47.3
L 177.15 69.3 180 72.15 198.55 53.55 198.55 68.85 177.15 90.3 180 93.15 198.55 74.55 198.55 89.85 177.15 111.3 180 114.15 198.55 95.55 198.55 110.85 177.15 132.3 180 135.15 198.55 116.55 198.55 131.85 177.15 153.3 180 156.15 198.55 137.55 198.55 175.4 42.55 175.4 42.55 179.4 502.55 179.4 Z"/>
</g>
</defs>

<g transform="matrix( 1, 0, 0, 1, 0,0) ">
<use xlink:href="#Layer0_0_FILL"/>
</g>

<g transform="matrix( 1.0234832763671875, 0, 0, 1.0234832763671875, 199.1,469.4) ">
<clipPath id="Mask_Mask_1">
<rect x="-154.75" y="-2" width="453.5" height="120.25" fill="#FFFFFF" stroke="none"/>
</clipPath>

<text clip-path="url(#Mask_Mask_1)" writing-mode="lr"><tspan x="-152.65" y="27.75" baseline-shift="0%" font-family="Volvo Sans Pro Light Regular" font-size="30" fill="#FFFFFF" xml:space="preserve">THE VOLVO WONDER OF WINTER</tspan><tspan x="-151.15" y="97.4" baseline-shift="0%" font-family="Volvo Sans Pro Medium Regular" font-size="70" fill="#FFFFFF" xml:space="preserve">SALES EVENT</tspan></text>
</g>
</svg>
